<svg width="137" height="20" viewBox="0 0 137 20" fill="none" xmlns="http://www.w3.org/2000/svg">
<path d="M4.176 13.869C5.508 13.869 6.732 13.275 7.272 12.231L7.416 13.635H9.378V0.242981H7.236V5.89498C6.678 5.01298 5.544 4.47298 4.302 4.47298C1.62 4.47298 0 6.45298 0 9.22498C0 11.979 1.602 13.869 4.176 13.869ZM4.662 11.853C3.114 11.853 2.196 10.737 2.196 9.15298C2.196 7.56898 3.114 6.43498 4.662 6.43498C6.192 6.43498 7.164 7.55098 7.164 9.15298C7.164 10.755 6.192 11.853 4.662 11.853Z" fill="white"/>
<path d="M7.36603 17.757H9.50803V12.411C10.066 13.329 11.272 13.869 12.604 13.869C15.232 13.869 16.798 11.853 16.762 9.08096C16.708 6.29096 15.106 4.47296 12.586 4.47296C11.236 4.47296 10.012 5.06696 9.47203 6.09296L9.34603 4.74296H7.36603V17.757ZM9.59803 9.18896C9.59803 7.58696 10.57 6.47096 12.1 6.47096C13.63 6.47096 14.548 7.60496 14.548 9.18896C14.548 10.773 13.63 11.889 12.1 11.889C10.57 11.889 9.59803 10.791 9.59803 9.18896Z" fill="white"/>
<path d="M26.1486 15H31.4046C34.0326 15 35.7426 13.758 35.7426 11.562C35.7426 9.95997 34.8606 8.95197 33.5826 8.42997C34.8066 7.96197 35.5986 6.95397 35.5986 5.42397C35.5986 3.31797 34.0686 1.85997 31.3506 1.85997H26.1486V15ZM31.2786 3.82197C32.6646 3.82197 33.3306 4.75797 33.3306 5.72997C33.3306 6.71997 32.6646 7.58397 31.2786 7.58397H28.4166V3.82197H31.2786ZM31.4406 9.31197C32.6106 9.31197 33.4926 10.014 33.4926 11.184C33.4926 12.336 32.6826 13.038 31.4406 13.038H28.4166V9.31197H31.4406Z" fill="white"/>
<path d="M37.0113 10.536C37.0113 13.272 38.8473 15.216 41.6373 15.216C44.4273 15.216 46.2633 13.272 46.2633 10.536C46.2633 7.79997 44.4273 5.85597 41.6373 5.85597C38.8473 5.85597 37.0113 7.79997 37.0113 10.536ZM39.2253 10.536C39.2253 8.93397 40.1793 7.81797 41.6373 7.81797C43.0953 7.81797 44.0493 8.93397 44.0493 10.536C44.0493 12.12 43.0953 13.254 41.6373 13.254C40.1793 13.254 39.2253 12.12 39.2253 10.536Z" fill="white"/>
<path d="M47.4879 10.536C47.4879 13.272 49.3239 15.216 52.1139 15.216C54.9039 15.216 56.7399 13.272 56.7399 10.536C56.7399 7.79997 54.9039 5.85597 52.1139 5.85597C49.3239 5.85597 47.4879 7.79997 47.4879 10.536ZM49.7019 10.536C49.7019 8.93397 50.6559 7.81797 52.1139 7.81797C53.5719 7.81797 54.5259 8.93397 54.5259 10.536C54.5259 12.12 53.5719 13.254 52.1139 13.254C50.6559 13.254 49.7019 12.12 49.7019 10.536Z" fill="white"/>
<path d="M61.3167 15V7.92597H63.0087V6.10797H61.3167V3.33597H59.1387V6.10797H57.4287V7.92597H59.1387V15H61.3167Z" fill="white"/>
<path d="M63.71 12.336C63.782 14.1 65.15 15.234 67.274 15.234C69.362 15.234 70.784 14.118 70.784 12.39C70.784 11.112 69.992 10.248 68.534 9.88797L66.968 9.50997C66.302 9.32997 65.852 9.09597 65.852 8.51997C65.852 7.90797 66.338 7.47597 67.13 7.47597C67.958 7.47597 68.498 7.94397 68.498 8.71797H70.496C70.424 6.95397 69.11 5.83797 67.184 5.83797C65.276 5.83797 63.854 6.95397 63.854 8.64597C63.854 9.79797 64.52 10.752 66.23 11.202L67.778 11.598C68.354 11.76 68.714 12.03 68.714 12.534C68.714 13.236 68.048 13.56 67.238 13.56C66.266 13.56 65.708 13.11 65.708 12.336H63.71Z" fill="white"/>
<path d="M75.555 15V7.92597H77.247V6.10797H75.555V3.33597H73.377V6.10797H71.667V7.92597H73.377V15H75.555Z" fill="white"/>
<path d="M84.337 6.07197C82.987 5.76597 81.457 6.07197 80.917 7.15197L80.791 6.12597H78.775V15H80.971V10.68C80.971 8.95197 81.889 7.97997 83.473 7.97997H84.337V6.07197Z" fill="white"/>
<path d="M88.3786 15.234C89.7826 15.234 90.8446 14.604 91.2226 13.686L91.3846 15H93.3106V9.59997C93.3106 7.24197 91.9426 5.83797 89.4406 5.83797C87.1366 5.83797 85.5526 7.11597 85.5706 9.02397H87.4426C87.4246 8.10597 88.1266 7.54797 89.3326 7.54797C90.4126 7.54797 91.1686 8.01597 91.1686 9.23997V9.43797L88.6306 9.63597C86.6326 9.79797 85.3366 10.734 85.3366 12.462C85.3366 14.118 86.4706 15.234 88.3786 15.234ZM89.0986 13.578C88.1086 13.578 87.5686 13.146 87.5686 12.372C87.5686 11.652 88.0366 11.22 89.3326 11.094L91.1866 10.932V11.4C91.1866 13.056 90.0346 13.578 89.0986 13.578Z" fill="white"/>
<path d="M95.5973 19.122H97.7393V13.776C98.2973 14.694 99.5033 15.234 100.835 15.234C103.463 15.234 105.029 13.218 104.993 10.446C104.939 7.65597 103.337 5.83797 100.817 5.83797C99.4673 5.83797 98.2433 6.43197 97.7033 7.45797L97.5773 6.10797H95.5973V19.122ZM97.8293 10.554C97.8293 8.95197 98.8013 7.83597 100.331 7.83597C101.861 7.83597 102.779 8.96997 102.779 10.554C102.779 12.138 101.861 13.254 100.331 13.254C98.8013 13.254 97.8293 12.156 97.8293 10.554Z" fill="white"/>
<path d="M106.795 19.122H108.937V13.776C109.495 14.694 110.701 15.234 112.033 15.234C114.661 15.234 116.227 13.218 116.191 10.446C116.137 7.65597 114.535 5.83797 112.015 5.83797C110.665 5.83797 109.441 6.43197 108.901 7.45797L108.775 6.10797H106.795V19.122ZM109.027 10.554C109.027 8.95197 109.999 7.83597 111.529 7.83597C113.059 7.83597 113.977 8.96997 113.977 10.554C113.977 12.138 113.059 13.254 111.529 13.254C109.999 13.254 109.027 12.156 109.027 10.554Z" fill="white"/>
<path d="M117.396 10.554C117.396 13.38 119.124 15.234 121.698 15.234C123.84 15.234 125.514 13.956 125.892 12.066H123.858C123.642 12.84 122.796 13.38 121.734 13.38C120.402 13.38 119.574 12.606 119.52 11.184H125.856V10.518C125.856 7.69197 124.29 5.83797 121.698 5.83797C119.142 5.83797 117.396 7.69197 117.396 10.554ZM119.556 9.77997C119.574 8.42997 120.42 7.65597 121.626 7.65597C122.814 7.65597 123.66 8.39397 123.678 9.77997H119.556Z" fill="white"/>
<path d="M131.275 15.234C132.607 15.234 133.831 14.64 134.371 13.596L134.515 15H136.477V1.60797H134.335V7.25997C133.777 6.37797 132.643 5.83797 131.401 5.83797C128.719 5.83797 127.099 7.81797 127.099 10.59C127.099 13.344 128.701 15.234 131.275 15.234ZM131.761 13.218C130.213 13.218 129.295 12.102 129.295 10.518C129.295 8.93397 130.213 7.79997 131.761 7.79997C133.291 7.79997 134.263 8.91597 134.263 10.518C134.263 12.12 133.291 13.218 131.761 13.218Z" fill="white"/>
</svg>
